<svg width="437" height="84" viewBox="0 0 437 84" fill="none" xmlns="http://www.w3.org/2000/svg">
<path d="M0 75.3677V11.8828H23.2349C30.3177 11.8828 36.3064 13.1435 41.201 15.6649C46.0956 18.1863 49.7809 21.8183 52.257 26.5609C54.7907 31.2434 56.0575 36.9166 56.0575 43.5802C56.0575 50.1838 54.7907 55.857 52.257 60.5996C49.7809 65.3422 46.0956 69.0042 41.201 71.5856C36.3064 74.107 30.3177 75.3677 23.2349 75.3677H0ZM13.4745 63.8413H22.4576C29.2524 63.8413 34.291 62.1904 37.5732 58.8886C40.9131 55.5268 42.583 50.424 42.583 43.5802C42.583 36.6764 40.9131 31.5736 37.5732 28.2718C34.291 24.97 29.2524 23.3191 22.4576 23.3191H13.4745V63.8413Z" fill="#ECEEF1"/>
<path d="M63.1261 75.3677V65.012L95.6032 19.2669V23.4091H63.1261V11.8828H108.473V22.1485L75.9097 67.8936V63.8413H109.682V75.3677H63.1261Z" fill="#ECEEF1"/>
<path d="M118.513 75.3677V11.8828H131.987V37.3668H159.887V11.8828H173.448V75.3677H159.887V48.9832H131.987V75.3677H118.513Z" fill="#ECEEF1"/>
<path d="M185.825 75.3677V11.8828H228.149V22.7788H198.695V37.637H226.076V48.623H198.695V64.4717H228.149V75.3677H185.825Z" fill="#ECEEF1"/>
<path d="M237.532 75.3677V11.8828H251.006V37.3668H278.906V11.8828H292.467V75.3677H278.906V48.9832H251.006V75.3677H237.532Z" fill="#ECEEF1"/>
<path d="M331.016 76.3582C322.09 76.3582 315.439 74.047 311.063 69.4244C306.687 64.8019 304.498 57.9281 304.498 48.8031V11.8828H317.973V48.8931C317.973 53.9959 319.009 57.8681 321.082 60.5095C323.213 63.151 326.524 64.4717 331.016 64.4717C335.392 64.4717 338.645 63.151 340.776 60.5095C342.964 57.8681 344.058 53.9959 344.058 48.8931V11.8828H357.36V48.8031C357.36 57.9281 355.143 64.8019 350.709 69.4244C346.333 74.047 339.768 76.3582 331.016 76.3582Z" fill="#ECEEF1"/>
<path d="M383.367 75.3677V23.3191H364.019V11.8828H416.19V23.3191H396.842V75.3677H383.367Z" fill="#ECEEF1"/>
<path d="M423.525 75.3677V11.8828H437V75.3677H423.525Z" fill="#ECEEF1"/>
</svg>
